<svg class="icon default-class" stroke="none" stroke-width="2" viewBox="0 0 128 128" xmlns="http://www.w3.org/2000/svg">
  <path d="M0 0 C1.10888151 1.04915253 2.19174123 2.12653035 3.24609375 3.23046875 C6.29365706 5.92797411 10.10434601 6.76363409 13.98046875 7.765625 C14.0418724 11.71300276 14.03942194 15.32495612 11.63671875 18.59375 C7.52587342 22.2935108 3.21443431 24.11279377 -2.01953125 25.765625 C-3.22954475 32.18395746 -3.44775952 36.3864563 0.16796875 41.9765625 C1.22600884 44.30628539 0.7061788 45.36556433 -0.01953125 47.765625 C0.25097328 49.77508722 0.57414784 51.77916724 0.98046875 53.765625 C-0.00953125 54.260625 -0.00953125 54.260625 -1.01953125 54.765625 C-1.61849218 57.07273378 -1.9760809 59.38251218 -2.359375 61.734375 C-2.68615234 62.73984375 -2.68615234 62.73984375 -3.01953125 63.765625 C-4.50453125 64.260625 -4.50453125 64.260625 -6.01953125 64.765625 C-10.20615767 71.04556463 -9.55833899 79.45456131 -9.01953125 86.765625 C-7.69166917 90.32670967 -6.66439559 92.12076066 -4.01953125 94.765625 C-3.83203125 97.828125 -3.83203125 97.828125 -4.01953125 100.765625 C-5.89596886 102.64206261 -8.51758826 101.94547487 -11.01171875 101.99609375 C-13.01953125 101.765625 -13.01953125 101.765625 -16.01953125 99.765625 C-16.67953125 100.425625 -17.33953125 101.085625 -18.01953125 101.765625 C-19.87280273 102.02441406 -19.87280273 102.02441406 -22.140625 102.03125 C-22.98447754 102.03543945 -23.82833008 102.03962891 -24.69775391 102.04394531 C-25.60831543 102.03459961 -26.51887695 102.02525391 -27.45703125 102.015625 C-28.39337402 102.00885742 -29.3297168 102.00208984 -30.29443359 101.99511719 C-65.46923895 101.48593805 -65.46923895 101.48593805 -78.01953125 89.765625 C-82.6947792 83.43706922 -83.75904961 77.48948345 -83.01953125 69.765625 C-82.02953125 70.095625 -81.03953125 70.425625 -80.01953125 70.765625 C-80.12652344 70.19714844 -80.23351562 69.62867187 -80.34375 69.04296875 C-81.47639326 61.74777181 -80.13567476 57.93984026 -76.01953125 51.765625 C-75.52453125 50.775625 -75.02953125 49.785625 -74.51953125 48.765625 C-73.01953125 45.765625 -73.01953125 45.765625 -71.01953125 42.765625 C-70.02953125 42.765625 -69.03953125 42.765625 -68.01953125 42.765625 C-67.68953125 39.135625 -67.35953125 35.505625 -67.01953125 31.765625 C-62.9678205 33.79148037 -60.07205615 35.6605752 -58.01953125 39.765625 C-56.38513818 50.50061586 -60.4959662 58.40390644 -65.01953125 67.765625 C-67.35326413 74.76682364 -66.15106118 80.49407934 -62.9921875 87.015625 C-62.1409794 88.73568982 -62.1409794 88.73568982 -61.01953125 89.765625 C-60.9215625 88.89421875 -60.82359375 88.0228125 -60.72265625 87.125 C-58.16345095 66.73960606 -49.28660079 52.10633721 -36.29296875 36.47265625 C-31.21332224 30.27557814 -27.43227523 25.07678795 -27.01953125 16.765625 C-26.35953125 16.765625 -25.69953125 16.765625 -25.01953125 16.765625 C-25.34953125 16.435625 -25.67953125 16.105625 -26.01953125 15.765625 C-25.60796559 9.59214004 -24.50645899 5.93080575 -20.64453125 1.015625 C-15.92753737 -2.61283183 -4.98189887 -3.04502909 0 0 Z M-4.01953125 6.765625 C-3.68953125 7.755625 -3.35953125 8.745625 -3.01953125 9.765625 C-2.35953125 9.105625 -1.69953125 8.445625 -1.01953125 7.765625 C-2.00953125 7.435625 -2.99953125 7.105625 -4.01953125 6.765625 Z M-9.01953125 15.765625 C-8.01953125 19.765625 -8.01953125 19.765625 -8.01953125 19.765625 Z M-20.01953125 20.765625 C-20.01953125 21.095625 -20.01953125 21.425625 -20.01953125 21.765625 C-16.71953125 21.765625 -13.41953125 21.765625 -10.01953125 21.765625 C-10.01953125 21.435625 -10.01953125 21.105625 -10.01953125 20.765625 C-13.31953125 20.765625 -16.61953125 20.765625 -20.01953125 20.765625 Z M-31.01953125 70.765625 C-31.01953125 71.095625 -31.01953125 71.425625 -31.01953125 71.765625 C-29.36953125 71.765625 -27.71953125 71.765625 -26.01953125 71.765625 C-26.01953125 71.435625 -26.01953125 71.105625 -26.01953125 70.765625 C-27.66953125 70.765625 -29.31953125 70.765625 -31.01953125 70.765625 Z M-26.01953125 71.765625 C-25.38015625 72.425625 -24.74078125 73.085625 -24.08203125 73.765625 C-20.98004043 78.27761165 -20.65471652 82.23359406 -21.4140625 87.50390625 C-21.89339178 89.9419336 -22.42161736 92.35420371 -23.01953125 94.765625 C-21.69953125 94.435625 -20.37953125 94.105625 -19.01953125 93.765625 C-18.76871443 91.55964576 -18.54479274 89.35059921 -18.33203125 87.140625 C-18.20441406 85.91085938 -18.07679687 84.68109375 -17.9453125 83.4140625 C-18.046286 78.45041757 -19.52250256 75.26265369 -23.01953125 71.765625 C-24.00953125 71.765625 -24.99953125 71.765625 -26.01953125 71.765625 Z " transform="translate(99.01953125,14.234375)"/>
</svg>