<?xml version="1.0" encoding="UTF-8"?>
<svg version="1.1" xmlns="http://www.w3.org/2000/svg" viewBox="0 0 225 225" width="40" height="40">
  <path d="M0 0 C22.73789774 9.53564658 44.74739805 9.0057012 67.671875 0.53125 C70.64926387 -0.66703369 70.64926387 -0.66703369 73.24609375 -2.4296875 C76.77404089 -4.38772713 78.7603279 -3.66314362 82.5546875 -2.734375 C106.17523246 4.83862415 122.72161861 19.53285132 134.22265625 41.26953125 C136.72180265 46.35832239 138.53083136 50.47532506 137.625 56.25 C136.31548667 60.03303851 135.40841478 61.75784031 132.00162601 63.89806557 C128.13561331 65.44594078 124.81837447 65.66909211 120.72398376 65.63095093 C119.9465101 65.6356309 119.16903643 65.64031087 118.36800295 65.64513266 C115.77242225 65.65706352 113.17737139 65.64763309 110.58178711 65.63818359 C108.71711418 65.64225011 106.85244367 65.64759244 104.98777771 65.65411377 C99.93004718 65.66778264 94.87250036 65.6624907 89.81476665 65.65297651 C84.52132724 65.64537886 79.22790352 65.65242572 73.9344635 65.65713501 C65.04636817 65.66259177 56.15834764 65.65540252 47.27026367 65.64111328 C36.99324743 65.62478193 26.71640968 65.63007915 16.43939775 65.6465925 C7.61547693 65.66020363 -1.20839013 65.662129 -10.03231806 65.65427649 C-15.30241379 65.64959858 -20.5724256 65.64897851 -25.84251595 65.65888596 C-30.79607825 65.66754806 -35.74941021 65.66154749 -40.70294762 65.64420319 C-42.52142581 65.64023452 -44.33992336 65.64137887 -46.15839386 65.64799118 C-48.63951394 65.65618168 -51.11989452 65.64591567 -53.60096741 65.63095093 C-54.32159066 65.63764309 -55.04221391 65.64433526 -55.78467423 65.65123022 C-60.1571987 65.60002934 -62.88102207 64.89898862 -66.375 62.25 C-69.12834443 58.9269981 -69.98021571 55.93490749 -69.77734375 51.6015625 C-66.87049858 34.61204023 -52.73251962 19.00808912 -39.375 9.25 C-31.58647293 4.10324802 -23.37780962 -0.15894748 -14.375 -2.75 C-13.27478516 -3.16185547 -13.27478516 -3.16185547 -12.15234375 -3.58203125 C-7.65385084 -3.854092 -4.05783915 -1.79565319 0 0 Z " fill="#518264" transform="translate(78.375,146.75)"/>
  <path d="M0 0 C10.66638404 8.97127654 18.69117476 21.99960699 20.41796875 36.00390625 C21.67675154 54.23827409 18.27348855 69.40313815 6.16796875 83.65234375 C-4.127991 94.64130079 -17.10752499 101.48717894 -32.2734375 102.34765625 C-48.66599551 102.85467619 -62.31033508 99.60814489 -74.89453125 88.56640625 C-76.47454223 87.06377337 -78.03886361 85.54435226 -79.58203125 84.00390625 C-80.44634766 83.15699219 -80.44634766 83.15699219 -81.328125 82.29296875 C-92.59694038 70.29241212 -95.38181263 54.63818765 -94.9296875 38.82421875 C-94.59922888 32.72435534 -93.18181112 27.52843848 -90.58203125 22.00390625 C-90.16953125 21.08609375 -89.75703125 20.16828125 -89.33203125 19.22265625 C-82.15782761 4.7111989 -69.80054188 -5.6642564 -54.58203125 -10.99609375 C-35.34650941 -16.92253094 -15.63070854 -12.08364912 0 0 Z " fill="#518264" transform="translate(149.58203125,25.99609375)"/>
</svg>
